<svg id="Layer_1" data-name="Layer 1" xmlns="http://www.w3.org/2000/svg" viewBox="0 0 360 198"><defs><style>.cls-1{fill:#ec5d6f;}</style></defs><title>LGOGF</title><path class="cls-1" d="M55.12,41.17,5.46,70.08v57.84l49.66,28.91,49.67-28.91V70.08ZM54.89,47,78,61.49,54.89,76,32.29,61ZM27.24,63.58l27.91,17.9,29.19-17.9,13.25,8.95L55.47,95.87,13.36,71.25ZM10.76,76,49.88,99,35.06,107,10.76,93.3Zm0,23,18,11-18,11.06ZM100,125.91,55.06,150.84l-16-10.55L100,103.53ZM100,99l-65.3,39.06L13.53,125.91,100,76Z"/><path class="cls-1" d="M147.2,123.77a11.11,11.11,0,0,1-.07,1.35,3.24,3.24,0,0,1-.25,1,1.41,1.41,0,0,1-.41.56.85.85,0,0,1-.52.17H123.78a2.29,2.29,0,0,1-1.55-.66,3,3,0,0,1-.73-2.33V74.18a3,3,0,0,1,.73-2.33,2.29,2.29,0,0,1,1.55-.66H145.7a.85.85,0,0,1,.52.17,1.17,1.17,0,0,1,.37.56,5,5,0,0,1,.23,1,9.6,9.6,0,0,1,.09,1.43,8.91,8.91,0,0,1-.09,1.35,4.51,4.51,0,0,1-.23.94,1.18,1.18,0,0,1-.37.53.85.85,0,0,1-.52.17H127.63V94.41h15.88a.72.72,0,0,1,.34.07,1.39,1.39,0,0,1,.6.68,3.24,3.24,0,0,1,.24,1,12.48,12.48,0,0,1,.07,1.45,10.92,10.92,0,0,1-.07,1.36,3.16,3.16,0,0,1-.24.92,1.17,1.17,0,0,1-.4.51,1,1,0,0,1-.53.15H127.63v20.17h18.31a.85.85,0,0,1,.52.17,1.43,1.43,0,0,1,.41.53,3,3,0,0,1,.25.94A12,12,0,0,1,147.2,123.77Z"/><path class="cls-1" d="M181.81,111.31a19.18,19.18,0,0,1-1.21,7,15.14,15.14,0,0,1-3.36,5.23,14,14,0,0,1-5.06,3.23,17.8,17.8,0,0,1-6.27,1.08,18.76,18.76,0,0,1-4.35-.48,20.74,20.74,0,0,1-3.57-1.17,16.05,16.05,0,0,1-2.64-1.43,7.22,7.22,0,0,1-1.48-1.26,3.41,3.41,0,0,1-.61-1.32,9.29,9.29,0,0,1-.2-2.15,14.32,14.32,0,0,1,.07-1.58,4.49,4.49,0,0,1,.22-1,1.11,1.11,0,0,1,.36-.54.86.86,0,0,1,.51-.15,2.7,2.7,0,0,1,1.43.74,21.77,21.77,0,0,0,2.37,1.61,21.06,21.06,0,0,0,3.48,1.63,13.46,13.46,0,0,0,4.71.76,10.15,10.15,0,0,0,3.7-.65A8.36,8.36,0,0,0,172.8,119a8,8,0,0,0,1.86-2.93,11.21,11.21,0,0,0,.65-3.95,8.56,8.56,0,0,0-.9-4.08,10.33,10.33,0,0,0-2.38-3,20.48,20.48,0,0,0-3.37-2.34l-3.88-2.17a40.37,40.37,0,0,1-3.86-2.45,17.27,17.27,0,0,1-3.36-3.17,15.19,15.19,0,0,1-2.4-4.27,16.76,16.76,0,0,1-.92-5.88,17.3,17.3,0,0,1,1.07-6.27,12.91,12.91,0,0,1,3-4.62,12.64,12.64,0,0,1,4.51-2.84,16,16,0,0,1,5.65-1,15.39,15.39,0,0,1,3.12.33,18.55,18.55,0,0,1,3,.87A15.12,15.12,0,0,1,177,72.49a6.51,6.51,0,0,1,1.43,1.08,3.3,3.3,0,0,1,.45.65,2.78,2.78,0,0,1,.18.61,7.42,7.42,0,0,1,.11.89c0,.35,0,.8,0,1.35s0,1-.05,1.39a6.56,6.56,0,0,1-.16,1,1.33,1.33,0,0,1-.31.61.63.63,0,0,1-.45.2,2.63,2.63,0,0,1-1.24-.61q-.85-.61-2.08-1.37a16.66,16.66,0,0,0-2.9-1.39,10.7,10.7,0,0,0-3.77-.63,8.45,8.45,0,0,0-3.4.63A6.57,6.57,0,0,0,161,81.06a9.69,9.69,0,0,0-.47,3,8.47,8.47,0,0,0,.9,4,10.48,10.48,0,0,0,2.4,3,20.85,20.85,0,0,0,3.41,2.39l3.9,2.19q2,1.11,3.9,2.43a17.07,17.07,0,0,1,3.41,3.12,14.61,14.61,0,0,1,2.42,4.25A16.42,16.42,0,0,1,181.81,111.31Z"/><path class="cls-1" d="M221.89,119.12q0,.69,0,1.22a5.89,5.89,0,0,1-.13.91,3.4,3.4,0,0,1-.23.69,3.76,3.76,0,0,1-.51.74,10.78,10.78,0,0,1-1.52,1.32,17.2,17.2,0,0,1-2.87,1.74,21,21,0,0,1-3.93,1.43,19,19,0,0,1-4.86.59,18.18,18.18,0,0,1-8.21-1.82,17,17,0,0,1-6.25-5.38,26.36,26.36,0,0,1-4-8.79,47.07,47.07,0,0,1-1.39-12,47.12,47.12,0,0,1,1.5-12.46A29,29,0,0,1,193.69,78a18.64,18.64,0,0,1,6.48-5.79,17.58,17.58,0,0,1,8.36-2,16.93,16.93,0,0,1,3.94.46A21.91,21.91,0,0,1,216,71.82a15,15,0,0,1,2.89,1.61,9.94,9.94,0,0,1,1.75,1.5,4.84,4.84,0,0,1,.63.89,3.33,3.33,0,0,1,.23.72,7.89,7.89,0,0,1,.14,1c0,.38.06.82.06,1.35a12.77,12.77,0,0,1-.07,1.48,4.71,4.71,0,0,1-.22,1,1.58,1.58,0,0,1-.34.61.67.67,0,0,1-.49.2,2.55,2.55,0,0,1-1.42-.85,22.85,22.85,0,0,0-2.34-1.87,17.56,17.56,0,0,0-3.48-1.87,12.87,12.87,0,0,0-4.92-.85,11,11,0,0,0-5.68,1.5,12.84,12.84,0,0,0-4.38,4.41,23.75,23.75,0,0,0-2.81,7.1,41.39,41.39,0,0,0-1,9.57,41.49,41.49,0,0,0,1,9.44,21.43,21.43,0,0,0,2.76,6.86,12.13,12.13,0,0,0,4.41,4.17,12.26,12.26,0,0,0,5.92,1.41,13.24,13.24,0,0,0,4.88-.82,17.55,17.55,0,0,0,3.56-1.84,28.18,28.18,0,0,0,2.41-1.84,2.68,2.68,0,0,1,1.49-.82.73.73,0,0,1,.44.13.93.93,0,0,1,.29.5,5.38,5.38,0,0,1,.16,1Q221.89,118.12,221.89,119.12Z"/><path class="cls-1" d="M268.61,98.33a51.85,51.85,0,0,1-1.34,12.28,27.9,27.9,0,0,1-4,9.31,18.06,18.06,0,0,1-6.66,5.9,20.18,20.18,0,0,1-9.35,2.06,20.47,20.47,0,0,1-9.12-1.89,16.48,16.48,0,0,1-6.35-5.49,25.45,25.45,0,0,1-3.74-8.94,55.13,55.13,0,0,1-1.23-12.28,50.49,50.49,0,0,1,1.34-12.07,27.15,27.15,0,0,1,4-9.22,18.33,18.33,0,0,1,6.68-5.86,22.41,22.41,0,0,1,18.34-.2,16.74,16.74,0,0,1,6.37,5.45,25.08,25.08,0,0,1,3.79,8.85A52.7,52.7,0,0,1,268.61,98.33Zm-6.57.52a52.77,52.77,0,0,0-.7-8.88A23,23,0,0,0,259,82.86a12.34,12.34,0,0,0-4.38-4.71,12.68,12.68,0,0,0-6.78-1.69,12,12,0,0,0-6.78,1.82,14,14,0,0,0-4.45,4.86,22.58,22.58,0,0,0-2.45,7.1,47.47,47.47,0,0,0-.74,8.53,56.24,56.24,0,0,0,.69,9.11,22.94,22.94,0,0,0,2.31,7.18,12.09,12.09,0,0,0,4.35,4.69,12.86,12.86,0,0,0,6.83,1.67,12.23,12.23,0,0,0,6.85-1.82,13.54,13.54,0,0,0,4.47-4.93,23.36,23.36,0,0,0,2.41-7.18A49.52,49.52,0,0,0,262,98.85Z"/><path class="cls-1" d="M313.36,106.29a31,31,0,0,1-1.25,9.16,19.63,19.63,0,0,1-3.57,6.81,14.94,14.94,0,0,1-5.65,4.22,19,19,0,0,1-7.57,1.44,17.93,17.93,0,0,1-7.06-1.35,14.76,14.76,0,0,1-5.47-4,18.15,18.15,0,0,1-3.51-6.59,30.83,30.83,0,0,1-1.23-9.14V72a1.23,1.23,0,0,1,.14-.6,1,1,0,0,1,.5-.41,4.7,4.7,0,0,1,.93-.26,8.48,8.48,0,0,1,1.51-.11,8.61,8.61,0,0,1,1.47.11,4.26,4.26,0,0,1,1,.26,1,1,0,0,1,.49.41,1.23,1.23,0,0,1,.14.6v33.89a26.2,26.2,0,0,0,.8,6.86,13.75,13.75,0,0,0,2.31,4.87,9.69,9.69,0,0,0,3.64,2.93,11.25,11.25,0,0,0,4.78,1,11.66,11.66,0,0,0,4.85-1,9.33,9.33,0,0,0,3.6-2.89,13.84,13.84,0,0,0,2.26-4.77,25.29,25.29,0,0,0,.78-6.65V72a1.23,1.23,0,0,1,.14-.6,1,1,0,0,1,.5-.41,4.65,4.65,0,0,1,1-.26,8.51,8.51,0,0,1,1.49-.11,8.32,8.32,0,0,1,1.46.11,4.35,4.35,0,0,1,.93.26,1.11,1.11,0,0,1,.5.41,1.14,1.14,0,0,1,.16.6Z"/><path class="cls-1" d="M355.16,74.12a12.32,12.32,0,0,1-.07,1.43,3.58,3.58,0,0,1-.23,1,1.34,1.34,0,0,1-.4.54,1.65,1.65,0,0,1-.52.23H341v48.64a2.69,2.69,0,0,0-.34.61,1,1,0,0,1-.51.41,4.74,4.74,0,0,1-1,.26,10.29,10.29,0,0,1-3,0,4.7,4.7,0,0,1-1-.26,1,1,0,0,1-.51-.41.43.43,0,0,1,.12-.61V77.3H321.44a1.63,1.63,0,0,1-.52-.23,1.18,1.18,0,0,1-.38-.54,4.6,4.6,0,0,1-.24-1,9.9,9.9,0,0,1-.09-1.43,10.37,10.37,0,0,1,.09-1.45,5.1,5.1,0,0,1,.24-1,1.18,1.18,0,0,1,.38-.56c.15-.12.33-.17.52.11h32.5c.19-.28.37-.23.52-.11a1.33,1.33,0,0,1,.4.56,4,4,0,0,1,.23,1A12.9,12.9,0,0,1,355.16,74.12Z"/></svg>