<svg id="Layer_1" data-name="Layer 1" xmlns="http://www.w3.org/2000/svg" viewBox="0 0 301.81 115.66"><defs><style>.cls-1{fill:#ec5d6f;}</style></defs><title>LGOG</title><path class="cls-1" d="M78.22,41.17,35.36,70.08v57.84l42.86,28.91,42.87-28.91V70.08ZM78,47,98,61.49,78,76,58.51,61ZM54.16,63.58l24.09,17.9,25.19-17.9,11.43,8.95L78.52,95.87,42.18,71.25ZM39.94,76,73.7,99,60.9,107l-21-13.74Zm0,23,15.52,11L39.94,121.11Zm77,26.9L78.17,150.84,64.38,140.29l52.55-36.76Zm0-26.91L60.57,138.05,42.33,125.91,116.92,76Z" transform="translate(-35.36 -41.17)"/><path class="cls-1" d="M157.68,123.77a12.85,12.85,0,0,1-.06,1.35,3.66,3.66,0,0,1-.22,1,1.41,1.41,0,0,1-.35.56.67.67,0,0,1-.45.17H137.47a1.85,1.85,0,0,1-1.34-.66,3.36,3.36,0,0,1-.63-2.33V74.18a3.36,3.36,0,0,1,.63-2.33,1.85,1.85,0,0,1,1.34-.66h18.92a.67.67,0,0,1,.45.17,1.19,1.19,0,0,1,.32.56,5.67,5.67,0,0,1,.2,1,11.1,11.1,0,0,1,.08,1.43,10.31,10.31,0,0,1-.08,1.35,5.11,5.11,0,0,1-.2.94,1.19,1.19,0,0,1-.32.53.67.67,0,0,1-.45.17H140.8V94.41h13.7a.55.55,0,0,1,.29.07,1.34,1.34,0,0,1,.51.68,3.67,3.67,0,0,1,.21,1,14.45,14.45,0,0,1,.06,1.45,12.64,12.64,0,0,1-.06,1.36,3.56,3.56,0,0,1-.21.92,1.16,1.16,0,0,1-.35.51.74.74,0,0,1-.46.15H140.8v20.17h15.8a.67.67,0,0,1,.45.17,1.42,1.42,0,0,1,.35.53,3.36,3.36,0,0,1,.22.94A13.85,13.85,0,0,1,157.68,123.77Z" transform="translate(-35.36 -41.17)"/><path class="cls-1" d="M187.55,111.31a21.93,21.93,0,0,1-1,7,15.59,15.59,0,0,1-2.9,5.23,12,12,0,0,1-4.36,3.23,13.49,13.49,0,0,1-5.41,1.08,14.07,14.07,0,0,1-3.76-.48,16.24,16.24,0,0,1-3.09-1.17,13.4,13.4,0,0,1-2.27-1.43,6.6,6.6,0,0,1-1.28-1.26,3.67,3.67,0,0,1-.53-1.32,10.72,10.72,0,0,1-.17-2.15q0-1,.06-1.58a5.11,5.11,0,0,1,.19-1,1.13,1.13,0,0,1,.31-.54.67.67,0,0,1,.44-.15,2.23,2.23,0,0,1,1.23.74,18.94,18.94,0,0,0,2,1.61,17.17,17.17,0,0,0,3,1.63,10.19,10.19,0,0,0,4.07.76,7.7,7.7,0,0,0,3.2-.65,7.19,7.19,0,0,0,2.49-1.84,8.26,8.26,0,0,0,1.6-2.93,12.83,12.83,0,0,0,.56-3.95,9.71,9.71,0,0,0-.78-4.08,10.22,10.22,0,0,0-2.06-3,17.88,17.88,0,0,0-2.91-2.34l-3.35-2.17a34.61,34.61,0,0,1-3.33-2.45,15.67,15.67,0,0,1-5-7.44,19.19,19.19,0,0,1-.79-5.88,19.78,19.78,0,0,1,.92-6.27,13.3,13.3,0,0,1,2.56-4.62,10.84,10.84,0,0,1,3.9-2.84,12.16,12.16,0,0,1,4.88-1,11.53,11.53,0,0,1,2.7.33,14.39,14.39,0,0,1,2.56.87,12.42,12.42,0,0,1,2.13,1.22,5.82,5.82,0,0,1,1.23,1.08,3.37,3.37,0,0,1,.39.65,3.11,3.11,0,0,1,.16.61,8.54,8.54,0,0,1,.09.89c0,.35,0,.8,0,1.35s0,1,0,1.39a7.52,7.52,0,0,1-.14,1,1.41,1.41,0,0,1-.27.61.51.51,0,0,1-.39.2,2.14,2.14,0,0,1-1.07-.61q-.74-.61-1.79-1.37a13.63,13.63,0,0,0-2.51-1.39,8.11,8.11,0,0,0-3.26-.63,6.43,6.43,0,0,0-2.93.63,6,6,0,0,0-2.06,1.67,7.15,7.15,0,0,0-1.22,2.47,11.11,11.11,0,0,0-.41,3,9.59,9.59,0,0,0,.78,4,10.36,10.36,0,0,0,2.07,3A18.23,18.23,0,0,0,175,93.52l3.37,2.19a40.59,40.59,0,0,1,3.37,2.43,15.81,15.81,0,0,1,2.95,3.12,15.35,15.35,0,0,1,2.09,4.25A18.8,18.8,0,0,1,187.55,111.31Z" transform="translate(-35.36 -41.17)"/><path class="cls-1" d="M222.14,119.12q0,.69,0,1.22a6.77,6.77,0,0,1-.11.91,3.78,3.78,0,0,1-.2.69,3.84,3.84,0,0,1-.44.74,9.91,9.91,0,0,1-1.31,1.32,14.63,14.63,0,0,1-2.48,1.74,16.65,16.65,0,0,1-3.39,1.43,14.3,14.3,0,0,1-4.19.59,13.93,13.93,0,0,1-7.09-1.82,15.56,15.56,0,0,1-5.39-5.38,28.51,28.51,0,0,1-3.43-8.79,54.2,54.2,0,0,1-1.2-12,54.23,54.23,0,0,1,1.29-12.46A31.34,31.34,0,0,1,197.81,78a17.15,17.15,0,0,1,5.59-5.79,13.52,13.52,0,0,1,7.21-2,12.71,12.71,0,0,1,3.4.46,17.14,17.14,0,0,1,3.05,1.15,12.56,12.56,0,0,1,2.49,1.61,9.09,9.09,0,0,1,1.51,1.5,4.91,4.91,0,0,1,.55.89,3.71,3.71,0,0,1,.2.72,9.06,9.06,0,0,1,.12,1c0,.38,0,.82,0,1.35s0,1.07-.06,1.48a5.35,5.35,0,0,1-.19,1,1.66,1.66,0,0,1-.3.61.54.54,0,0,1-.42.2q-.44,0-1.22-.85a20.54,20.54,0,0,0-2-1.87,14.62,14.62,0,0,0-3-1.87,9.76,9.76,0,0,0-4.24-.85,8.54,8.54,0,0,0-4.9,1.5,12.12,12.12,0,0,0-3.78,4.41,26,26,0,0,0-2.43,7.1,47.71,47.71,0,0,0-.86,9.57,47.84,47.84,0,0,0,.83,9.44,23.46,23.46,0,0,0,2.38,6.86,11.29,11.29,0,0,0,3.81,4.17,9.43,9.43,0,0,0,5.11,1.41,10,10,0,0,0,4.21-.82,14.54,14.54,0,0,0,3.07-1.84,25.11,25.11,0,0,0,2.08-1.84q.81-.82,1.28-.82a.57.57,0,0,1,.38.13,1,1,0,0,1,.25.5,6.17,6.17,0,0,1,.14,1Q222.14,118.12,222.14,119.12Z" transform="translate(-35.36 -41.17)"/><path class="cls-1" d="M262.47,98.33a59.75,59.75,0,0,1-1.15,12.28,30.36,30.36,0,0,1-3.44,9.31,16.6,16.6,0,0,1-5.75,5.9,15.47,15.47,0,0,1-8.07,2.06,15.64,15.64,0,0,1-7.87-1.89,15.07,15.07,0,0,1-5.48-5.49,27.75,27.75,0,0,1-3.23-8.94,63.57,63.57,0,0,1-1.06-12.28,58.18,58.18,0,0,1,1.15-12.07A29.49,29.49,0,0,1,231,78a16.81,16.81,0,0,1,5.77-5.86,16.94,16.94,0,0,1,15.83-.2,15.26,15.26,0,0,1,5.5,5.45,27.27,27.27,0,0,1,3.27,8.85A60.76,60.76,0,0,1,262.47,98.33Zm-5.67.52a61,61,0,0,0-.61-8.88,25.57,25.57,0,0,0-2-7.12,11.81,11.81,0,0,0-3.78-4.71,9.79,9.79,0,0,0-5.85-1.69,9.3,9.3,0,0,0-5.85,1.82,13.41,13.41,0,0,0-3.84,4.86,25,25,0,0,0-2.12,7.1,54.82,54.82,0,0,0-.64,8.53,65,65,0,0,0,.59,9.11,25.58,25.58,0,0,0,2,7.18,11.59,11.59,0,0,0,3.75,4.69,9.92,9.92,0,0,0,5.9,1.67,9.48,9.48,0,0,0,5.91-1.82,13,13,0,0,0,3.86-4.93,26,26,0,0,0,2.08-7.18A57.2,57.2,0,0,0,256.8,98.85Z" transform="translate(-35.36 -41.17)"/><path class="cls-1" d="M301.09,106.29a35.59,35.59,0,0,1-1.08,9.16,20.84,20.84,0,0,1-3.08,6.81,13.25,13.25,0,0,1-4.87,4.22,14.42,14.42,0,0,1-6.53,1.44,13.65,13.65,0,0,1-6.09-1.35,13,13,0,0,1-4.72-4,19.22,19.22,0,0,1-3-6.59,35.42,35.42,0,0,1-1.06-9.14V72a1.38,1.38,0,0,1,.12-.6.89.89,0,0,1,.43-.41,3.63,3.63,0,0,1,.81-.26,6.34,6.34,0,0,1,1.3-.11,6.43,6.43,0,0,1,1.27.11,3.29,3.29,0,0,1,.82.26.9.9,0,0,1,.42.41,1.38,1.38,0,0,1,.12.6v33.89a30.17,30.17,0,0,0,.69,6.86,14.78,14.78,0,0,0,2,4.87,8.73,8.73,0,0,0,3.14,2.93,8.59,8.59,0,0,0,4.13,1,8.89,8.89,0,0,0,4.19-1,8.39,8.39,0,0,0,3.11-2.89,14.89,14.89,0,0,0,1.95-4.77,29.11,29.11,0,0,0,.67-6.65V72a1.38,1.38,0,0,1,.12-.6.89.89,0,0,1,.43-.41,3.59,3.59,0,0,1,.82-.26,6.36,6.36,0,0,1,1.28-.11,6.22,6.22,0,0,1,1.26.11,3.36,3.36,0,0,1,.81.26,1,1,0,0,1,.43.41,1.28,1.28,0,0,1,.14.6Z" transform="translate(-35.36 -41.17)"/><path class="cls-1" d="M337.16,74.12a14.26,14.26,0,0,1-.06,1.43,4.06,4.06,0,0,1-.2,1,1.1,1.1,0,0,1-.8.78H324.93v48.64a2.83,2.83,0,0,0-.3.61.89.89,0,0,1-.44.41,3.66,3.66,0,0,1-.82.26,7.67,7.67,0,0,1-2.57,0A3.63,3.63,0,0,1,320,127a.89.89,0,0,1-.44-.41.47.47,0,0,1,.11-.61V77.3H308.06a1.32,1.32,0,0,1-.45-.23,1.19,1.19,0,0,1-.33-.54,5.21,5.21,0,0,1-.2-1,11.45,11.45,0,0,1-.08-1.43,12,12,0,0,1,.08-1.45,5.79,5.79,0,0,1,.2-1,1.2,1.2,0,0,1,.33-.56c.13-.12.28-.17.45.11h28c.17-.28.32-.23.45-.11a1.34,1.34,0,0,1,.34.56,4.48,4.48,0,0,1,.2,1Q337.16,73.29,337.16,74.12Z" transform="translate(-35.36 -41.17)"/></svg>