<svg id="Layer_1" data-name="Layer 1" xmlns="http://www.w3.org/2000/svg" viewBox="0 0 360 198"><defs><style>.cls-1{fill:#ec5d6f;}</style></defs><title>sssssssss</title><path class="cls-1" d="M114.47,59.83,86,79.41v39.17l28.48,19.58L143,118.59V79.41Zm-.13,3.92,13.27,9.85-13.27,9.85-13-10.17ZM98.48,75l16,12.12L131.23,75l7.6,6.06L114.67,96.88,90.52,80.21ZM89,83.45,111.47,99l-8.5,5.46L89,95.14ZM89,99l10.31,7.48L89,114Zm51.16,18.22-25.75,16.89L105.27,127l34.92-24.9Zm0-18.23-37.45,26.45-12.12-8.23,49.57-33.77Z"/><path class="cls-1" d="M167.27,115.77a8.87,8.87,0,0,1,0,.91,2.52,2.52,0,0,1-.14.65,1,1,0,0,1-.24.38.44.44,0,0,1-.3.12H153.84a1.22,1.22,0,0,1-.89-.45,2.31,2.31,0,0,1-.42-1.58V82.19a2.31,2.31,0,0,1,.42-1.58,1.22,1.22,0,0,1,.89-.45h12.57a.44.44,0,0,1,.3.12.81.81,0,0,1,.21.38,3.91,3.91,0,0,1,.13.65,7.66,7.66,0,0,1,.05,1,7.11,7.11,0,0,1-.05.91,3.52,3.52,0,0,1-.13.64.81.81,0,0,1-.21.36.44.44,0,0,1-.3.12H156.05V95.89h9.1a.36.36,0,0,1,.19,0,.91.91,0,0,1,.34.46,2.52,2.52,0,0,1,.14.66q0,.42,0,1a8.72,8.72,0,0,1,0,.92,2.45,2.45,0,0,1-.14.63.78.78,0,0,1-.23.34.49.49,0,0,1-.3.1h-9.1v13.66h10.5a.44.44,0,0,1,.3.12,1,1,0,0,1,.24.36,2.31,2.31,0,0,1,.14.64A9.56,9.56,0,0,1,167.27,115.77Z"/><path class="cls-1" d="M187.12,107.34a15.11,15.11,0,0,1-.69,4.76,10.62,10.62,0,0,1-1.92,3.54,8,8,0,0,1-2.9,2.19,8.82,8.82,0,0,1-3.59.73,9.18,9.18,0,0,1-2.5-.32,10.67,10.67,0,0,1-2-.79,8.88,8.88,0,0,1-1.51-1,4.43,4.43,0,0,1-.85-.85,2.51,2.51,0,0,1-.35-.9,7.39,7.39,0,0,1-.11-1.45q0-.65,0-1.07a3.52,3.52,0,0,1,.12-.69.77.77,0,0,1,.21-.37.44.44,0,0,1,.29-.1,1.47,1.47,0,0,1,.82.5,12.62,12.62,0,0,0,1.36,1.09,11.34,11.34,0,0,0,2,1.1,6.66,6.66,0,0,0,2.7.51,5,5,0,0,0,2.12-.44,4.78,4.78,0,0,0,1.66-1.25,5.63,5.63,0,0,0,1.07-2,8.84,8.84,0,0,0,.37-2.67,6.68,6.68,0,0,0-.52-2.76,6.92,6.92,0,0,0-1.37-2,11.92,11.92,0,0,0-1.94-1.59l-2.23-1.47a23,23,0,0,1-2.22-1.66,10.63,10.63,0,0,1-3.3-5,13.23,13.23,0,0,1-.53-4,13.63,13.63,0,0,1,.61-4.25,9.06,9.06,0,0,1,1.7-3.13,7.21,7.21,0,0,1,2.59-1.93,8,8,0,0,1,3.24-.66,7.53,7.53,0,0,1,1.79.22,9.44,9.44,0,0,1,1.7.59,8.21,8.21,0,0,1,1.42.82,3.89,3.89,0,0,1,.82.73,2.29,2.29,0,0,1,.26.44,2.14,2.14,0,0,1,.1.41,5.89,5.89,0,0,1,.06.6c0,.24,0,.54,0,.91s0,.67,0,.94a5.18,5.18,0,0,1-.09.69,1,1,0,0,1-.18.41.34.34,0,0,1-.26.13,1.42,1.42,0,0,1-.71-.41q-.49-.41-1.19-.93a9,9,0,0,0-1.66-.94,5.3,5.3,0,0,0-2.16-.43,4.2,4.2,0,0,0-1.95.43A4,4,0,0,0,176,85.17a4.88,4.88,0,0,0-.81,1.68,7.66,7.66,0,0,0-.27,2.06,6.6,6.6,0,0,0,.52,2.73,7,7,0,0,0,1.38,2,12.16,12.16,0,0,0,2,1.62L181,96.77a27,27,0,0,1,2.24,1.65,10.62,10.62,0,0,1,2,2.12,10.48,10.48,0,0,1,1.39,2.88A13,13,0,0,1,187.12,107.34Z"/><path class="cls-1" d="M210.1,112.63q0,.47,0,.82a4.67,4.67,0,0,1-.07.62,2.15,2.15,0,0,1-.42,1,6.65,6.65,0,0,1-.87.9,9.72,9.72,0,0,1-1.65,1.18,11,11,0,0,1-2.26,1,9.33,9.33,0,0,1-2.79.4,9.12,9.12,0,0,1-4.71-1.23,10.44,10.44,0,0,1-3.58-3.64,19.53,19.53,0,0,1-2.28-6,42,42,0,0,1,.06-16.59,21.47,21.47,0,0,1,2.41-6.28,11.52,11.52,0,0,1,3.72-3.92,8.86,8.86,0,0,1,4.79-1.35,8.3,8.3,0,0,1,2.26.31,11.25,11.25,0,0,1,2,.78,8.33,8.33,0,0,1,1.66,1.09,6.1,6.1,0,0,1,1,1,3.34,3.34,0,0,1,.36.6,2.55,2.55,0,0,1,.13.48,6.25,6.25,0,0,1,.08.66c0,.25,0,.56,0,.91s0,.73,0,1a3.69,3.69,0,0,1-.13.69,1.13,1.13,0,0,1-.2.41.36.36,0,0,1-.28.13q-.29,0-.81-.57a13.75,13.75,0,0,0-1.34-1.26,9.69,9.69,0,0,0-2-1.26,6.38,6.38,0,0,0-2.82-.57,5.6,5.6,0,0,0-3.26,1,8.16,8.16,0,0,0-2.51,3A17.87,17.87,0,0,0,195,92.71a37.12,37.12,0,0,0,0,12.87,16.09,16.09,0,0,0,1.58,4.64,7.6,7.6,0,0,0,2.53,2.82,6.18,6.18,0,0,0,3.39,1,6.56,6.56,0,0,0,2.8-.56,9.63,9.63,0,0,0,2-1.25,16.79,16.79,0,0,0,1.38-1.25q.54-.56.85-.56a.37.37,0,0,1,.25.09.66.66,0,0,1,.17.34,4.26,4.26,0,0,1,.09.69Q210.1,112,210.1,112.63Z"/><path class="cls-1" d="M236.9,98.55a41.22,41.22,0,0,1-.77,8.32,20.81,20.81,0,0,1-2.29,6.3,11.14,11.14,0,0,1-3.82,4,10.13,10.13,0,0,1-5.36,1.4,10.24,10.24,0,0,1-5.23-1.28,10.11,10.11,0,0,1-3.64-3.72,19,19,0,0,1-2.14-6.06,43.86,43.86,0,0,1-.7-8.32,40.13,40.13,0,0,1,.77-8.17,20.21,20.21,0,0,1,2.3-6.25,11.28,11.28,0,0,1,3.83-4,11.07,11.07,0,0,1,10.52-.13A10.24,10.24,0,0,1,234,84.37a18.69,18.69,0,0,1,2.17,6A41.92,41.92,0,0,1,236.9,98.55Zm-3.77.35a42.08,42.08,0,0,0-.4-6,17.57,17.57,0,0,0-1.34-4.82,8,8,0,0,0-2.51-3.19A6.42,6.42,0,0,0,225,83.73,6.1,6.1,0,0,0,221.09,85a9.05,9.05,0,0,0-2.55,3.29,17.21,17.21,0,0,0-1.41,4.81,37.83,37.83,0,0,0-.42,5.78,44.85,44.85,0,0,0,.39,6.17,17.58,17.58,0,0,0,1.32,4.86,7.82,7.82,0,0,0,2.49,3.17,6.5,6.5,0,0,0,3.92,1.13,6.22,6.22,0,0,0,3.93-1.23,8.8,8.8,0,0,0,2.56-3.34,17.85,17.85,0,0,0,1.38-4.86A39.47,39.47,0,0,0,233.13,98.9Z"/><path class="cls-1" d="M262.56,103.94a24.54,24.54,0,0,1-.72,6.2,14.24,14.24,0,0,1-2,4.61,8.86,8.86,0,0,1-3.24,2.86,9.43,9.43,0,0,1-4.34,1,8.93,8.93,0,0,1-4-.91A8.69,8.69,0,0,1,245,115a13.13,13.13,0,0,1-2-4.47,24.43,24.43,0,0,1-.71-6.19V80.73a1,1,0,0,1,.08-.41.6.6,0,0,1,.29-.28,2.38,2.38,0,0,1,.54-.18,4.13,4.13,0,0,1,.86-.07,4.2,4.2,0,0,1,.84.07,2.16,2.16,0,0,1,.54.18.6.6,0,0,1,.28.28,1,1,0,0,1,.08.41v22.95a20.81,20.81,0,0,0,.46,4.65,10.12,10.12,0,0,0,1.33,3.3,5.84,5.84,0,0,0,2.09,2,5.62,5.62,0,0,0,2.74.67,5.81,5.81,0,0,0,2.78-.65,5.62,5.62,0,0,0,2.07-2,10.19,10.19,0,0,0,1.29-3.23,20.08,20.08,0,0,0,.45-4.5V80.73a1,1,0,0,1,.08-.41.6.6,0,0,1,.29-.28,2.36,2.36,0,0,1,.55-.18,4.15,4.15,0,0,1,.85-.07,4.06,4.06,0,0,1,.83.07,2.21,2.21,0,0,1,.54.18.68.68,0,0,1,.29.28.88.88,0,0,1,.09.41Z"/><path class="cls-1" d="M286.53,82.15q0,.56,0,1a2.79,2.79,0,0,1-.13.66.91.91,0,0,1-.23.37.88.88,0,0,1-.3.16H278.4v32.94a1.93,1.93,0,0,0-.2.41.6.6,0,0,1-.29.28,2.4,2.4,0,0,1-.55.18,5,5,0,0,1-1.71,0,2.38,2.38,0,0,1-.56-.18.6.6,0,0,1-.29-.28.32.32,0,0,1,.07-.41V84.3h-7.69a.87.87,0,0,1-.3-.16.81.81,0,0,1-.22-.37,3.59,3.59,0,0,1-.14-.66,7.9,7.9,0,0,1-.05-1,8.27,8.27,0,0,1,.05-1,4,4,0,0,1,.14-.69.81.81,0,0,1,.22-.38c.09-.08.19-.12.3.07h18.64c.11-.19.21-.15.3-.07a.91.91,0,0,1,.23.38,3.09,3.09,0,0,1,.13.69Q286.53,81.59,286.53,82.15Z"/></svg>